#!OML:ASF E:\Style4\Style4.ASF
:FULLY-SPECIFIED
:DEGREES
2875
root -0.407394 17.8396 -1.65229 -2.75981 -21.0011 1.61737
lowerback 3.96775 1.03407 -4.79073
upperback 1.09624 1.17117 -0.700406
thorax -1.17787 0.590258 1.90699
lowerneck 3.10551 -3.04246 -5.05487
upperneck 3.55573 -4.20847 0.865495
head 0.708206 -2.16405 1.11555
rclavicle -5.74115e-014 -1.07344e-014
rhumerus -350.745 -19.3861 -416.225
rradius 70.1912
rwrist -83.2712
rhand -36.3174 22.8996
rfingers 7.12502
rthumb -9.41611 -6.87003
lclavicle -5.74115e-014 -1.07344e-014
lhumerus -59.0314 -37.7249 96.2347
lradius 134.057
lwrist 61.1054
lhand 15.9833 25.9091
lfingers 7.12502
lthumb 40.7764 50.8962
rfemur -10.8159 11.1113 18.1464
rtibia 28.9965
rfoot -16.4635 -2.59751
rtoes -9.89412
lfemur 0.985108 8.7796 -20.3691
ltibia 22.7592
lfoot -25.2709 19.3332
ltoes -5.24043
2876
root -0.416283 17.8397 -1.6581 -2.80539 -20.7397 1.68583
lowerback 4.032 1.11221 -4.99594
upperback 1.13298 1.26173 -0.834307
thorax -1.18341 0.634955 1.87842
lowerneck 3.14659 -3.02311 -5.09753
upperneck 3.68899 -4.18573 0.889799
head 0.743723 -2.15515 1.13015
rclavicle -1.08164e-013 2.82274e-014
rhumerus -351.056 -19.3483 -415.386
rradius 70.413
rwrist -82.7339
rhand -36.3711 22.966
rfingers 7.12502
rthumb -9.46792 -6.80136
lclavicle -1.08164e-013 2.82274e-014
lhumerus -59.2689 -37.5196 96.2941
lradius 134.087
lwrist 60.9685
lhand 16.1466 25.9073
lfingers 7.12502
lthumb 40.9298 50.846
rfemur -10.7492 11.0124 18.1089
rtibia 28.9876
rfoot -16.4572 -2.75284
rtoes -9.73746
lfemur 0.998191 8.61921 -20.4048
ltibia 22.6981
lfoot -25.1571 19.2587
ltoes -5.42185
2877
root -0.424096 17.8398 -1.66522 -2.76426 -20.4809 1.61123
lowerback 4.09703 1.18494 -4.9955
upperback 1.1507 1.35277 -0.966347
thorax -1.20472 0.68031 1.73639
lowerneck 3.2052 -3.00502 -5.02768
upperneck 3.76932 -4.16177 0.858736
head 0.755698 -2.14365 1.10873
rclavicle -3.33586e-014 1.94809e-014
rhumerus -351.452 -19.1645 -414.562
rradius 70.7346
rwrist -82.0942
rhand -36.5926 23.3869
rfingers 7.12502
rthumb -9.68156 -6.37061
lclavicle -3.33586e-014 1.94809e-014
lhumerus -59.4415 -37.2906 96.2111
lradius 133.986
lwrist 60.7706
lhand 16.8143 25.9293
lfingers 7.12502
lthumb 41.5566 50.6662
rfemur -10.7395 10.9302 18.2103
rtibia 29.0017
rfoot -16.4833 -2.90035
rtoes -9.81503
lfemur 0.998844 8.48761 -20.2906
ltibia 22.5799
lfoot -24.9788 19.1566
ltoes -5.47644
2878
root -0.429993 17.8402 -1.66927 -2.74883 -20.2379 1.57969
lowerback 4.11106 1.27162 -4.94755
upperback 1.22272 1.46876 -1.14421
thorax -1.14043 0.735296 1.52108
lowerneck 3.21904 -2.99088 -4.84569
upperneck 3.82085 -4.13674 0.786742
head 0.76245 -2.12973 1.05478
rclavicle 5.79209e-014 0
rhumerus -351.788 -19.0093 -413.82
rradius 71.0966
rwrist -81.1526
rhand -36.6879 23.4683
rfingers 7.12502
rthumb -9.77353 -6.28489
lclavicle 5.79209e-014 0
lhumerus -59.3533 -37.3544 96.0511
lradius 133.898
lwrist 60.6332
lhand 17.2137 25.9199
lfingers 7.12502
lthumb 41.9311 50.5329
rfemur -10.7242 10.7719 18.2565
rtibia 29.0425
rfoot -16.5247 -2.98529
rtoes -9.99007
lfemur 1.07686 8.34507 -20.2371
ltibia 22.3818
lfoot -24.8132 19.0992
ltoes -5.43621
2879
root -0.436784 17.8411 -1.66949 -2.87853 -20.0199 1.80542
lowerback 4.04273 1.37891 -5.22791
upperback 1.39991 1.60822 -1.32623
thorax -0.930554 0.79715 1.48697
lowerneck 3.11935 -2.99509 -4.75633
upperneck 3.87081 -4.13257 0.723631
head 0.790763 -2.12713 1.0177
rclavicle 7.16619e-014 -8.34896e-015
rhumerus -351.912 -18.8634 -413.14
rradius 71.3763
rwrist -79.9213
rhand -36.2211 22.8295
rfingers 7.12502
rthumb -9.32316 -6.94434
lclavicle 7.16619e-014 -8.34896e-015
lhumerus -59.0858 -37.4849 95.9411
lradius 133.945
lwrist 61.0055
lhand 16.8954 26.1267
lfingers 7.12502
lthumb 41.6326 50.8386
rfemur -10.6501 10.6085 18.0388
rtibia 29.1101
rfoot -16.587 -3.03861
rtoes -9.95525
lfemur 1.24301 8.17569 -20.4571
ltibia 22.1578
lfoot -24.7331 19.1203
ltoes -5.43013
2880
root -0.443376 17.8419 -1.66898 -3.03974 -19.7761 2.11184
lowerback 4.01324 1.48569 -5.61261
upperback 1.5255 1.73966 -1.49654
thorax -0.798495 0.85677 1.52197
lowerneck 3.09668 -3.00079 -4.75369
upperneck 3.93675 -4.13627 0.649996
head 0.813272 -2.1301 0.993212
rclavicle -4.36332e-014 -1.98785e-015
rhumerus -352.159 -18.511 -412.355
rradius 71.7389
rwrist -78.6976
rhand -35.7355 22.4284
rfingers 7.12502
rthumb -8.8546 -7.36583
lclavicle -4.36332e-014 -1.98785e-015
lhumerus -58.9479 -37.5193 95.925
lradius 133.959
lwrist 61.3396
lhand 16.7993 26.3539
lfingers 7.12502
lthumb 41.5425 51.0954
rfemur -10.5683 10.4102 17.7286
rtibia 29.1823
rfoot -16.7106 -3.03944
rtoes -9.64391
lfemur 1.41594 8.04687 -20.7546
ltibia 21.9307
lfoot -24.5414 19.1708
ltoes -5.94859
2881
root -0.449616 17.8419 -1.67574 -3.06533 -19.5092 2.26083
lowerback 4.05657 1.5761 -5.83506
upperback 1.54194 1.84649 -1.64044
thorax -0.814855 0.909575 1.49131
lowerneck 3.12343 -2.99263 -4.77161
upperneck 4.04647 -4.12505 0.603217
head 0.84191 -2.12656 0.981148
rclavicle 1.03617e-014 6.36111e-015
rhumerus -352.603 -17.9136 -411.494
rradius 72.2008
rwrist -77.4355
rhand -35.4079 22.7254
rfingers 7.12502
rthumb -8.53839 -7.08193
lclavicle 1.03617e-014 6.36111e-015
lhumerus -58.8915 -37.4768 96.0067
lradius 133.939
lwrist 61.1664
lhand 16.7439 26.3663
lfingers 7.12502
lthumb 41.4906 51.1247
rfemur -10.5861 10.2416 17.5786
rtibia 29.2244
rfoot -16.7605 -3.10098
rtoes -9.47166
lfemur 1.42697 7.94934 -20.8809
ltibia 21.7831
lfoot -24.3171 19.0952
ltoes -6.24695
2882
root -0.455946 17.8426 -1.6848 -3.01007 -19.2467 2.21581
lowerback 4.10392 1.67417 -5.8477
upperback 1.55704 1.97178 -1.75521
thorax -0.830777 0.972118 1.37256
lowerneck 3.21736 -2.98358 -4.75057
upperneck 4.04551 -4.11719 0.610605
head 0.825392 -2.12223 0.981404
rclavicle -3.19795e-014 -1.35174e-014
rhumerus -353.085 -17.1715 -410.604
rradius 72.7129
rwrist -76.0179
rhand -35.2333 23.4089
rfingers 7.12502
rthumb -8.36988 -6.40528
lclavicle -3.19795e-014 -1.35174e-014
lhumerus -58.7653 -37.3977 96.0119
lradius 133.985
lwrist 61.0262
lhand 15.85 26.2309
lfingers 7.12502
lthumb 40.6511 51.2571
rfemur -10.5856 10.141 17.646
rtibia 29.1804
rfoot -16.7236 -3.27919
rtoes -9.61476
lfemur 1.31359 7.82409 -20.8014
ltibia 21.813
lfoot -24.2761 18.9121
ltoes -6.03842
2883
root -0.463359 17.844 -1.69226 -2.83523 -19.011 1.95088
lowerback 4.05438 1.75428 -5.65624
upperback 1.58664 2.09075 -1.79581
thorax -0.772612 1.03017 1.22021
lowerneck 3.28318 -2.97238 -4.76096
upperneck 3.98784 -4.10553 0.598215
head 0.796106 -2.11564 0.980779
rclavicle -2.74323e-014 -7.95139e-016
rhumerus -353.481 -16.3239 -409.731
rradius 73.2903
rwrist -74.5948
rhand -35.1851 23.907
rfingers 7.12502
rthumb -8.32339 -5.909
lclavicle -2.74323e-014 -7.95139e-016
lhumerus -58.749 -37.2867 96.1112
lradius 133.952
lwrist 60.7406
lhand 14.7098 25.6308
lfingers 7.12502
lthumb 39.5785 50.9827
rfemur -10.601 10.0801 17.943
rtibia 29.0739
rfoot -16.6424 -3.44358
rtoes -9.46539
lfemur 1.07598 7.72649 -20.4927
ltibia 21.976
lfoot -24.1674 18.8028
ltoes -6.35686
2884
root -0.469284 17.8474 -1.69898 -2.62062 -18.7831 1.54561
lowerback 4.01762 1.8311 -5.29887
upperback 1.61628 2.21129 -1.79019
thorax -0.716627 1.08978 1.02295
lowerneck 3.21253 -2.9737 -4.80668
upperneck 4.04946 -4.10297 0.566095
head 0.827298 -2.11583 0.976857
rclavicle -2.51463e-014 2.06736e-014
rhumerus -353.797 -15.5763 -409.019
rradius 73.8726
rwrist -72.9864
rhand -34.9841 24.0894
rfingers 7.12502
rthumb -8.12946 -5.73425
lclavicle -2.51463e-014 2.06736e-014
lhumerus -58.8719 -37.2129 96.3494
lradius 133.824
lwrist 60.3386
lhand 13.9651 24.6519
lfingers 7.12502
lthumb 38.8766 50.2071
rfemur -10.6044 10.0521 18.3949
rtibia 28.9532
rfoot -16.5873 -3.65655
rtoes -9.86302
lfemur 0.851041 7.61049 -20.0395
ltibia 22.1448
lfoot -24.1767 18.6143
ltoes -5.9429
2885
root -0.474714 17.8488 -1.70491 -2.56789 -18.5327 1.46523
lowerback 4.0248 1.93467 -5.22927
upperback 1.65086 2.35163 -1.88086
thorax -0.686539 1.15895 0.884455
lowerneck 3.23752 -3.00569 -4.7735
upperneck 4.02933 -4.14336 0.474703
head 0.814944 -2.13555 0.943015
rclavicle -2.00773e-014 9.54166e-015
rhumerus -354.125 -14.8514 -408.381
rradius 74.4843
rwrist -71.2821
rhand -34.5831 23.763
rfingers 7.12502
rthumb -7.74238 -6.07525
lclavicle -2.00773e-014 9.54166e-015
lhumerus -58.9748 -37.1511 96.4636
lradius 133.751
lwrist 60.1446
lhand 13.718 23.8224
lfingers 7.12502
lthumb 38.6435 49.4436
rfemur -10.5565 9.97878 18.494
rtibia 28.8445
rfoot -16.5332 -3.77426
rtoes -10.0168
lfemur 0.710604 7.43055 -19.9467
ltibia 22.2769
lfoot -24.3067 18.4735
ltoes -5.63153
2886
root -0.480213 17.8491 -1.70792 -2.54464 -18.2616 1.57349
lowerback 3.95517 2.02613 -5.36526
upperback 1.67236 2.47272 -2.00284
thorax -0.63207 1.21753 0.831499
lowerneck 3.24342 -3.00792 -4.74623
upperneck 4.07554 -4.1435 0.409745
head 0.826056 -2.13614 0.917747
rclavicle -2.48481e-016 -1.51076e-014
rhumerus -354.502 -14.0278 -407.728
rradius 75.2349
rwrist -69.5573
rhand -34.3409 23.2556
rfingers 7.12502
rthumb -7.5086 -6.59116
lclavicle -2.48481e-016 -1.51076e-014
lhumerus -59.0136 -37.0236 96.4839
lradius 133.716
lwrist 60.1266
lhand 13.798 23.6921
lfingers 7.12502
lthumb 38.7191 49.292
rfemur -10.5305 9.83741 18.3766
rtibia 28.7654
rfoot -16.4891 -3.93393
rtoes -9.7948
lfemur 0.56552 7.31703 -20.053
ltibia 22.3647
lfoot -24.2891 18.3829
ltoes -5.78805
